# xmcd CD database file
#
# Track frame offsets:
#	150
#	19575
#	41100
#	60000
#	77775
#	99675
#	120900
#	145275
#	164175
#	187500
#	206400
#	227250
#	251850
#	271725
#	288375
#
# Disc length: 4131 seconds
#
# Revision: 1
# Processed by: cddbd v1.5.1PL2 Copyright (c) Steve Scherf et al.
# Submitted via: freeDBTagger 0.8.1.0
#
DISCID=c210210f
DTITLE=T.M.Revolution - 機動戦士ガンダムSEED PLUS
DYEAR=2003
DGENRE=misc
TTITLE0=INVOKE-インヴォーク-
TTITLE1=INVOKE-インヴォーク-
TTITLE2=INVOKE-インヴォーク-
TTITLE3=INVOKE-インヴォーク-
TTITLE4=INVOKE-インヴォーク-
TTITLE5=INVOKE-インヴォーク-
TTITLE6=INVOKE-インヴォーク-
TTITLE7=INVOKE-インヴォーク-
TTITLE8=INVOKE-インヴォーク-
TTITLE9=INVOKE-インヴォーク-
TTITLE10=INVOKE-インヴォーク-
TTITLE11=INVOKE-インヴォーク-
TTITLE12=INVOKE-インヴォーク-
TTITLE13=INVOKE-インヴォーク-
TTITLE14=INVOKE-インヴォーク-
EXTD=
EXTT0=
EXTT1=
EXTT2=
EXTT3=
EXTT4=
EXTT5=
EXTT6=
EXTT7=
EXTT8=
EXTT9=
EXTT10=
EXTT11=
EXTT12=
EXTT13=
EXTT14=
PLAYORDER=
